<?xml version="1.0" encoding="UTF-8"?>
<svg id="Layer_1" data-name="Layer 1" xmlns="http://www.w3.org/2000/svg" viewBox="0 0 3113 1332">
  <path d="M382.89,0c1.95,.3,3.9,.78,5.86,.88,131.01,6.8,235.5,111.14,240.85,242.07,1.85,45.23,.46,90.59,.55,135.89,.02,10.63,.03,10.57,9.66,14.56,66.78,27.68,133.53,55.44,200.36,82.99,4.26,1.76,5.48,3.89,5.47,8.38-.13,164.22-.11,328.44-.11,492.67q0,6.74-6.69,6.74c-42.49,0-84.97,0-127.46,0-1.64,0-3.29,0-5.49,0-.12-2.58-.32-4.83-.32-7.07-.01-176.21-.03-352.43,.08-528.64,0-4.51-.96-6.93-5.54-8.83-69.12-28.54-138.15-57.33-207.19-86.07-44.8-18.65-89.62-37.26-134.38-56.02-3.43-1.44-5.39-1.57-7.69,1.95-5.81,8.9-14.52,13.95-24.81,16.33v106.41c2.26,0,4.38-.05,6.49,0,25.13,.73,50.44-.23,75.34,2.52,111,12.26,202.97,101.88,219.15,212.47,4.8,32.78,3.51,65.75,2.09,98.71-.93,21.55-3.67,42.78-9.47,63.58-28.32,101.6-119.08,176.21-224.19,184.24-3.82,.29-7.66,.3-11.49,.31-44.15,.03-88.31,.14-132.46,0-66.44-.2-123.8-23.8-171.91-69.05C32.95,871.15,7.07,816.66,.91,752.86c-.17-1.79-.6-3.56-.91-5.34,0-14.66,0-29.31,0-43.97,1.49-.11,2.98-.32,4.47-.32,43.65-.02,87.29-.02,130.94,0,1.46,0,2.92,.17,4.65,.28,.27,3.07,.57,5.86,.74,8.66,4.48,72.04,63.06,129.28,135.2,131.42,25.95,.77,51.96,.71,77.92,0,59.68-1.63,111.82-41.88,129.33-99.06,17.55-57.32-3.51-119.72-52-154.92-19.47-14.13-41.35-22.35-64.77-25.98-13.16-2.04-26.73-1.37-40.61-1.95,0,2.77,0,4.4,0,6.03,0,30.81,.08,61.62-.1,92.42-.02,3.88,1.26,5.32,4.8,6.55,18.21,6.33,28.86,24.27,26.11,43.37-2.61,18.17-18.68,32.72-36.98,33.49-19.45,.82-36.17-11.5-40.78-30.04-4.6-18.51,4.49-37.64,22.14-45.45,4-1.77,4.8-3.93,4.8-7.85-.1-64.11-.06-128.23-.05-192.34,0-7.95,0-15.9,0-24.17h-74.26v117.78c-2.42-.2-4.22-.3-6-.49C100.32,547.01,3.23,440.16,1.03,313.97,.99,311.58,.36,309.19,0,306.8c0-17.99,0-35.98,0-53.96,.37-1.75,1.01-3.48,1.07-5.24C5.45,112.68,111.63,5.88,246.54,.71c1.8-.07,3.59-.47,5.38-.71,43.65,0,87.31,0,130.96,0Zm105.16,330.08c0-18.98,.04-37.11-.02-55.25-.02-5.66,.26-11.4-.59-16.95-3.57-23.35-12.58-44.56-27.29-63.03-28.39-35.65-65.38-54.52-111.21-54.48-28.13,.02-56.44-.79-84.34,2.05-73.02,7.42-132.43,73.62-122.94,155.8,7.63,66.15,60.08,116.86,126.41,122.95,12.33,1.13,24.85,.16,37.73,.16v-5.13c0-31.65-.11-63.29,.12-94.94,.03-4.74-1.12-7.24-5.62-9.44-16.95-8.32-25.18-27.95-19.91-46.05,5.16-17.72,22.51-29.96,40.48-28.55,19.45,1.53,34.77,15.74,36.91,34.62,.38,3.33,1.67,4.87,4.64,6.09,22.13,9.11,44.19,18.41,66.29,27.6,19.46,8.09,38.94,16.12,59.36,24.56Z"/>
  <path d="M1762.27,973.95h-139.49V432.07h-72.18v6.13c0,187.7,0,375.4,0,563.1,0,20.32,.38,40.65-.09,60.95-.76,33.08-3.55,66-15.83,97.13-38.94,98.66-111.18,154.64-216.57,167.6-4.94,.61-9.98,.41-14.98,.42-43.48,.03-86.97,.09-130.45,.01-74.4-.13-136.59-28.58-186.39-83.07-43.68-47.78-65.67-104.68-65.53-169.74,.02-8.83,.05-17.65,.09-26.48,0-.31,.2-.61,.42-1.26h138.97c1,8.48,1.49,16.81,3.01,24.95,12.54,67.36,69.55,114.97,138.04,115.37,23.15,.14,46.31,.29,69.46-.03,73.55-1.02,132.81-56.61,138.68-129.97,.77-9.6,1.14-19.26,1.16-28.9,.11-56.46,.05-112.92,.05-169.38v-6.09h-166.3v120.61c-2.3,0-4.05,0-5.8,0-21.66,0-43.32-.12-64.98,.02-56.6,.39-107.42-17.11-151.84-51.55-64.46-49.97-97.76-116.38-100.15-198.02-.54-18.29-1.07-36.61-.7-54.89,.71-35.75,6.16-70.79,21.29-103.48,40.6-87.76,108.84-138.78,204.91-151.89,10.53-1.44,21.26-1.81,31.9-1.87,36.15-.22,72.31,.18,108.46-.15,42.17-.39,82.47,7.36,120.51,25.93,.58,.28,1.21,.43,2.41,.85v-26.3h351.93V973.95Zm-518.07-141.84h166.44v-6.29c0-39.3,.16-78.6-.1-117.9-.08-11.77-.75-23.6-2.14-35.29-7.36-61.74-59.67-114.26-121.57-119.81-34.1-3.06-68.58-3.12-102.76,.78-71.82,8.19-132.76,74.31-121.67,158.26,5.64,42.72,27.72,75.71,63.63,99.43,30.13,19.9,63.62,23.83,99.02,20.48v-4.85c0-29.97-.07-59.95,.09-89.92,.02-4.13-1.07-5.95-5.25-7.29-18.27-5.85-29.18-23.88-26.55-42.98,2.6-18.86,18.26-33.05,37.53-34.01,18.74-.93,35.64,11.76,40.18,30.19,4.57,18.52-4.65,37.81-22.18,45.43-3.73,1.62-4.77,3.52-4.75,7.36,.15,30.31,.08,60.62,.08,90.92v5.49Z"/>
  <path d="M3086.07,915.21c-2.89,0-5.18,0-7.47,0-179.61,0-359.21,.02-538.82-.11-4.74,0-7.19,.96-9.07,5.78-5.83,14.88-20.49,24.2-36.49,24.12-16.13-.08-30.83-9.8-36.49-24.91-1.55-4.13-3.59-4.96-7.54-4.96-98.97,.09-197.93,.07-296.9,.07h-5.75v58.21c-2.17,0-3.92,0-5.67,0-18.16,0-36.32-.09-54.48,.02-51.12,.3-97.81-14.51-139.45-43.52-68.04-47.39-105.08-112.95-110.86-195.85-.29-4.15-.16-8.32-.16-12.49,0-142.9,0-285.8,0-428.7v-8.11c-1.83-.1-3.41-.26-5-.26-21.66-.02-43.32,.11-64.98-.12-4.04-.04-5.27,1.37-6.09,5.09-7.18,32.47-35.4,55.14-68.28,55.11-32.64-.03-60.93-22.62-68.07-54.77-.96-4.33-2.62-5.41-6.84-5.41-255.75,.1-511.49,.09-767.24,.09h-5.44c-.51,1.96-.91,3.39-1.26,4.84-8.5,35.44-40.89,57.77-77.6,53.48-33.83-3.95-60.3-34.09-60.44-68.82-.15-35.66,26.11-65.45,61.58-69.88,36.12-4.51,69.83,20.05,76.93,56.33,.78,3.97,2.21,5.01,6.11,5.01,255.91-.09,511.82-.09,767.73,0,3.86,0,5.35-.99,6.2-4.94,7.01-32.91,35.06-55.67,68.25-55.73,33.46-.06,61.46,22.63,68.57,55.9,.8,3.76,2.18,5.21,5.84,4.71,.98-.13,2-.02,3-.02,419.02,0,838.05,0,1257.07,.11,5.02,0,7.84-1.09,10.47-5.83,8.06-14.54,24.77-21.67,41.41-18.64,15.88,2.89,28.85,16.18,31.49,32.28,2.74,16.68-4.75,32.91-19.51,41-3.81,2.09-4.85,4.35-4.85,8.5,.11,194.86,.1,389.73,.1,584.59v7.82Zm-748.4-208.91c1.25-1.51,2.02-2.37,2.71-3.29,36.64-48.55,82.93-84.76,139.04-108.31,3.63-1.52,4.41-3.55,4.41-7.13-.08-98.75-.06-197.5-.08-296.25,0-1.77-.17-3.53-.26-5.36h-499.76c118.24,140.42,235.87,280.13,353.93,420.34Zm165.52-120.66c2.48-.73,4.23-1.21,5.96-1.75,25.09-7.8,50.76-12.54,76.98-14.1,37.21-2.21,73.88,1.16,109.84,11.23,2.53,.71,4.47,1.15,6.37-1.68,22.15-33.01,63.91-38.85,92.73-21.95,2.45,1.44,3.88,.78,5.52-1.07,3.31-3.74,6.71-7.4,10.12-11.05,27.4-29.32,54.83-58.61,82.22-87.95,26.7-28.61,53.34-57.27,80.04-85.88,20.79-22.28,41.66-44.48,62.4-66.81,1.02-1.1,1.87-3.33,1.47-4.61-1.51-4.71-3.58-9.24-5.52-14.05h-528.12v299.66Zm-525.18-275.57c-.37,.12-.74,.23-1.11,.35v6.3c0,121.57,0,243.15,.02,364.72,0,6.99,.15,13.99,.52,20.97,3.45,65.61,54.38,121.44,119.57,130.05,14.59,1.93,29.59,.79,44.4,1.05,1.91,.03,3.83,0,6.26,0v61.2c1.46,.14,2.44,.32,3.41,.33,39.65,.02,79.3-.03,118.95,.08,3.65,.01,4.39-1.47,4.51-4.71,2.18-58.84,18.68-113.38,49.63-163.49,1.63-2.64,1.39-4.27-.56-6.51-5.91-6.77-11.6-13.73-17.39-20.61-25.49-30.32-50.97-60.64-76.49-90.94-27.02-32.08-54.09-64.11-81.11-96.18-25.62-30.43-51.19-60.89-76.79-91.33-25.5-30.31-51-60.62-76.52-90.92-5.74-6.82-11.53-13.58-17.3-20.37Zm1088.77,584.99V319.82c-3.07-.86-6.23-1.16-8.75-2.59-4.32-2.45-6.75-.71-9.66,2.43-32.84,35.4-65.77,70.72-98.73,106.01-37.28,39.92-74.61,79.78-111.91,119.68-8.17,8.74-16.27,17.54-24.48,26.41,.73,1.06,1.24,1.89,1.83,2.67,16.33,21.57,19.41,45.08,9.95,70.22-1.3,3.46-.21,5.04,2.11,7.12,70.72,63.5,108.6,142.7,113.29,237.64,.23,4.59,1.59,5.76,6.06,5.74,38.31-.17,76.63-.1,114.94-.1,1.63,0,3.27,0,5.34,0Zm-148.17,0c-.82-43.97-9.75-85.44-27.76-124.8-18.51-40.47-44.45-75.55-78.03-105.02-.87,.58-1.5,.85-1.93,1.31-22.94,24.18-61.84,29.08-90.43,8.83-2.31-1.64-3.44-.63-4.96,1-28.63,30.67-57.31,61.29-85.96,91.95-32.62,34.92-65.19,69.88-97.83,104.79-5.96,6.38-6.05,6.29-2.05,14.13,.45,.89,1.05,1.77,1.24,2.72,.83,4.22,3.35,5.18,7.48,5.18,124.76-.11,249.52-.09,374.28-.09h5.93Zm-415.69-159.5c0,42.12-.03,84.24,.1,126.36,0,1.77,.96,4.14,2.29,5.18,2.23,1.74,4.34,.71,6.35-1.5,8.29-9.11,16.85-17.97,25.26-26.98,36.69-39.31,73.35-78.64,110.04-117.95,17.61-18.86,35.21-37.74,52.93-56.49,2.98-3.16,3.9-5.42,1.11-9.63-10.15-15.3-11.99-32.53-9.84-50.29,.49-4.04-.42-5.43-4.34-6.47-59.9-15.88-119.22-13.71-178.13,5.07-4.22,1.34-5.95,2.97-5.93,7.83,.25,41.62,.14,83.24,.14,124.86Zm-19.38-122.84c-2.36,.97-4.04,1.6-5.67,2.33-26.11,11.76-50.06,26.95-71.99,45.35-20.12,16.88-37.76,36.05-53.18,57.3-1.84,2.54-2.05,4.19,.22,6.81,10.87,12.58,21.44,25.43,32.16,38.15,29.16,34.6,58.37,69.14,87.44,103.82,2.24,2.67,3.8,3.66,7.36,2.21,3.32-1.36,3.95-3.17,3.95-6.35-.07-81.56-.05-163.11-.06-244.67,0-1.3-.12-2.61-.23-4.96Zm-144.62,126.02c-28.79,48.53-43.37,100.18-44.41,156.32,2.72,0,4.52,0,6.32,0,49.12,0,98.24-.08,147.36,.11,5.42,.02,8.61-.9,10.66-6.66,1.39-3.9,1.25-6.18-1.26-9.12-12.19-14.3-24.26-28.72-36.37-43.09-21.75-25.83-43.49-51.66-65.25-77.48-5.54-6.57-11.13-13.11-17.05-20.07Zm-593.25-463.18c.06-28.82-23.11-52.17-51.93-52.34-28.72-.17-52.27,23.11-52.44,51.84-.18,29,23.24,52.59,52.2,52.59,28.79,0,52.11-23.29,52.17-52.09Zm-918.74-1.19c-.01-28.78-23.33-52.15-52.09-52.2-28.99-.05-52.39,23.42-52.29,52.47,.1,28.74,23.55,52.04,52.31,51.97,28.73-.07,52.08-23.49,52.06-52.24Zm1882.18,343.95c-.26,28.79,22.73,52.36,51.51,52.8,28.64,.44,52.52-22.8,52.86-51.43,.35-29.14-22.7-52.75-51.73-52.98-28.83-.23-52.37,22.86-52.63,51.61Z"/>
</svg>