<?xml version="1.0" encoding="UTF-8"?>
<svg id="Layer_1" data-name="Layer 1" xmlns="http://www.w3.org/2000/svg" viewBox="0 0 3113 1332">
  <path d="M2700.47,1127.2v5.8c0,63.28,0,126.55,0,189.83q0,6.69-6.85,6.7c-9.16,0-18.33-.24-27.48,.1-4.75,.18-6.23-1.17-6.21-6.08,.2-38.63,.11-77.26,.11-115.9,0-50.79,.07-101.58-.11-152.36-.02-5.01,1.23-6.64,6.38-6.46,10.98,.39,22,.44,32.97,0,5.19-.21,7.61,1.84,9.91,6.16,19.05,35.7,38.33,71.27,57.55,106.87,.86,1.59,1.78,3.16,3.19,5.64,1.31-2.25,2.3-3.84,3.18-5.49,19.37-35.9,38.78-71.78,57.99-107.77,2.08-3.9,4.4-5.49,8.88-5.37,11.48,.31,22.99,.29,34.48-.01,4.51-.12,5.56,1.41,5.55,5.71-.13,62.11-.09,124.22-.09,186.33,0,27.64-.11,55.28,.1,82.92,.03,4.62-1.28,6.04-5.88,5.88-9.65-.32-19.33-.33-28.98,0-4.65,.16-5.86-1.34-5.85-5.91,.15-50.29,.1-100.58,.1-150.86,0-14.15,0-28.31-.02-42.46,0-1.07-.23-2.14-1.39-3.52-22.45,41.65-44.89,83.29-67.98,126.12-23.08-42.68-45.65-84.42-68.23-126.16-.45,.1-.9,.2-1.35,.3Z"/>
  <path d="M2634.48,1289.57c0,12.93,.05,25.21-.11,37.49-.01,.8-1.45,1.95-2.44,2.29-1.2,.41-2.63,.14-3.96,.14-55.3,0-110.6,0-165.9,0q-6.54,0-6.55-6.48c0-89.08-.01-178.16-.01-267.24q0-6.44,6.58-6.45c55.47,0,110.93,0,166.4,0q6.45,0,6.46,6.57c0,8.99-.27,17.99,.11,26.97,.21,4.93-1.05,6.49-6.29,6.46-42.14-.24-84.28-.15-126.42-.15-6.77,0-6.88,0-6.9,6.71-.07,22.81,.07,45.62-.16,68.43-.04,4.42,1.61,5.15,5.51,5.14,42.64-.1,85.28,.05,127.92-.15,5.07-.02,6.62,1.26,6.39,6.37-.41,9.47-.32,18.98-.03,28.46,.13,4.29-1.43,5.27-5.46,5.26-42.47-.14-84.95-.1-127.42-.12q-6.81,0-6.82,6.68c0,22.81,.1,45.62-.09,68.43-.04,4.21,1.26,5.31,5.36,5.3,42.14-.15,84.28-.11,126.42-.13,2.29,0,4.57,0,7.42,0Z"/>
  <path d="M2101.24,1328.5c-6,0-11.99,.02-17.99,0-41.12-.16-73.86-35.08-71.56-76.21,.15-2.77,1.01-3.83,3.8-3.8,10.83,.09,21.66,.1,32.48,0,2.75-.03,3.64,1.06,4.04,3.72,3.47,22.88,17.95,35.71,40.97,36.3,6.82,.18,13.67,.21,20.48-.13,20.75-1.04,37.06-18.02,37.56-38.85,.5-20.76-15.02-38.76-35.71-40.55-10.26-.89-20.63-.57-30.96-.61-38.63-.14-69.94-29.44-72.19-67.95-.5-8.62-.54-17.34,.16-25.94,2.95-36.3,32.61-64.65,69.02-65.97,13.47-.49,27-.56,40.47,0,40.19,1.68,70.89,35.33,69.42,75.5-.11,2.91-.82,4.16-3.96,4.12-10.83-.15-21.66-.12-32.48-.01-2.8,.03-3.61-1.11-4.01-3.74-3.53-23.07-18.8-36.18-42.14-36.16-7.65,0-15.39-.21-22.93,.83-20.86,2.89-34.94,20.75-33.79,42.03,1.09,20.27,17.41,36.36,38.1,37.2,9.15,.37,18.32,.12,27.48,.17,41.71,.22,73.59,31.79,73.53,73.42-.02,11.08-.29,22.51-2.93,33.17-7.88,31.9-36.52,53.37-69.39,53.46-5.83,.01-11.66,0-17.49,0Z"/>
  <path d="M3085.37,1129.02c-12.38,0-24.52,.1-36.65-.18-1.06-.02-2.77-2.42-2.98-3.89-1.82-12.6-7.42-23.12-18.52-29.36-6.02-3.38-13.29-5.46-20.19-6.15-8.87-.88-18.05-.58-26.9,.64-20.38,2.8-34.67,20.84-33.6,41.26,1.08,20.51,16.99,36.75,37.56,37.82,9.31,.49,18.65,.18,27.98,.22,41.77,.18,73.57,31.6,73.79,73.26,.05,9.46-.09,19.09-1.77,28.34-6.17,34.06-35.89,58.39-70.5,58.46-11.66,.02-23.33,.02-34.99,0-41.67-.09-74.11-34.38-72.16-76.12,.14-3.07,1.17-4,4.14-3.96,10.66,.13,21.33,.12,31.99,0,2.72-.03,3.63,.93,4.07,3.63,3.92,23.74,18.44,36.17,42.43,36.48,6.16,.08,12.33,.12,18.49-.12,20.96-.83,37.7-17.85,38.26-38.78,.56-20.72-14.93-38.7-35.65-40.66-8.93-.84-18.01-1.14-26.95-.54-37.47,2.52-77.28-26.59-76.61-75.41,.13-9.78,.26-19.79,2.36-29.26,6.86-30.96,33.89-53.56,65.54-55.15,14.29-.72,28.68-.77,42.96-.03,40.51,2.1,70.98,36.82,68.43,77.34-.03,.48-.23,.94-.54,2.14Z"/>
  <path d="M1621.16,1247.72c12.02,0,24.31-.1,36.59,.19,.95,.02,2.42,2.67,2.65,4.24,2.48,17.23,13.91,31.51,30.59,34.04,12.32,1.87,25.43,2.07,37.69,.03,19.68-3.27,32.31-21.93,30.78-41.9-1.5-19.57-17.39-35.32-37.37-36.46-10.13-.58-20.31-.36-30.47-.42-37.74-.21-69.73-30.97-70.98-68.69-.33-9.95-.54-20.08,.87-29.89,4.96-34.63,34.14-60.31,69.12-61.32,13.31-.38,26.67-.53,39.97,.05,40.68,1.78,71.63,36.62,69.02,77.24-.03,.49-.21,.97-.41,1.87h-39.21c-.47-2.75-.82-5.36-1.37-7.94-3.85-18.15-19.58-31.22-38.18-31.44-8.48-.1-17.05-.32-25.44,.69-21.05,2.51-35.57,20.45-34.63,41.88,.88,20.1,17.35,36.52,37.91,37.42,9.15,.4,18.32,.14,27.48,.19,42.06,.21,73.57,31.57,73.86,73.67,.05,7.65-.04,15.35-.9,22.93-4.13,36.24-34.69,63.34-71.2,63.43-12.16,.03-24.32,.06-36.48,0-41.42-.23-74.68-37.18-70.57-78.37,.03-.31,.27-.59,.68-1.46Z"/>
  <path d="M1926.59,1328.69c-7.23,0-13.85,0-20.47,0-5.16,0-10.33-.15-15.49,.05-3.45,.14-4.66-1.09-4.62-4.58,.15-12.65,.06-25.31,.06-37.96,0-21.98,.09-43.95-.1-65.93-.03-3-.85-6.3-2.27-8.95-28.09-52.38-56.32-104.67-84.52-156.99-.85-1.59-1.66-3.2-2.9-5.59,2.2-.17,3.74-.38,5.27-.39,11.82-.03,23.65,.13,35.47-.1,3.68-.07,5.63,1.21,7.35,4.42,19.16,35.82,38.47,71.55,57.75,107.31,1.09,2.02,2.23,4.01,3.79,6.83,1.36-2.25,2.32-3.71,3.15-5.25,19.52-36.19,39.08-72.36,58.48-108.62,1.8-3.36,3.75-4.79,7.69-4.71,13.13,.26,26.27,.1,40.45,.1-1.13,2.43-1.83,4.17-2.71,5.82-27.8,51.59-55.67,103.14-83.32,154.8-1.86,3.47-2.91,7.82-2.94,11.77-.23,33.63-.13,67.26-.13,100.89v7.08Z"/>
  <path d="M2339.44,1328.32h-40.35v-6.54c0-75.61,0-151.21,0-226.82q0-6.46-6.54-6.47c-25.82,0-51.65-.11-77.47,.1-4.62,.04-6.01-1.3-5.85-5.9,.33-9.81,.3-19.65,.01-29.47-.13-4.28,1.41-5.29,5.45-5.28,44.81,.12,89.63,.07,134.44,.07,24.82,0,49.65,.08,74.47-.08,4.06-.03,5.56,1.07,5.45,5.31-.27,9.98-.26,19.99,0,29.97,.11,4.17-1.25,5.38-5.39,5.36-26.15-.16-52.31,.02-78.46-.18-4.52-.03-5.9,1.15-5.89,5.82,.16,75.77,.12,151.55,.13,227.32,0,2.14,0,4.28,0,6.79Z"/>
</svg>